<?xml version="1.0" encoding="UTF-8" standalone="no"?>
<!DOCTYPE svg PUBLIC "-//W3C//DTD SVG 1.1//EN"
 "http://www.w3.org/Graphics/SVG/1.1/DTD/svg11.dtd">
<!-- Generated by graphviz version 2.26.3 (20100126.1600)
 -->
<!-- Title: controllers_diagram Pages: 1 -->
<svg width="760pt" height="645pt"
 viewBox="0.00 0.00 760.00 645.15" xmlns="http://www.w3.org/2000/svg" xmlns:xlink="http://www.w3.org/1999/xlink">
<g id="graph1" class="graph" transform="scale(1 1) rotate(0) translate(4 641.151)">
<title>controllers_diagram</title>
<polygon fill="white" stroke="white" points="-4,5 -4,-641.151 757,-641.151 757,5 -4,5"/>
<!-- _diagram_info -->
<g id="node1" class="node"><title>_diagram_info</title>
<text text-anchor="start" x="509" y="-328.3" font-family="Times Roman,serif" font-size="13.00">Controllers diagram</text>
<text text-anchor="start" x="509" y="-311.3" font-family="Times Roman,serif" font-size="13.00">Date: Sep 08 2013 &#45; 19:23</text>
<text text-anchor="start" x="509" y="-294.3" font-family="Times Roman,serif" font-size="13.00">Migration version: 20130908000925</text>
<text text-anchor="start" x="509" y="-277.3" font-family="Times Roman,serif" font-size="13.00">Generated by RailRoady 1.1.1</text>
<text text-anchor="start" x="509" y="-260.3" font-family="Times Roman,serif" font-size="13.00">http://railroady.prestonlee.com</text>
</g>
<!-- ApplicationController -->
<g id="node2" class="node"><title>ApplicationController</title>
<polyline fill="none" stroke="black" points="210.373,-240 424.373,-240 "/>
<path fill="none" stroke="black" d="M424.373,-240C430.373,-240 436.373,-246 436.373,-252"/>
<polyline fill="none" stroke="black" points="436.373,-252 436.373,-330 "/>
<path fill="none" stroke="black" d="M436.373,-330C436.373,-336 430.373,-342 424.373,-342"/>
<polyline fill="none" stroke="black" points="424.373,-342 210.373,-342 "/>
<path fill="none" stroke="black" d="M210.373,-342C204.373,-342 198.373,-336 198.373,-330"/>
<polyline fill="none" stroke="black" points="198.373,-330 198.373,-252 "/>
<path fill="none" stroke="black" d="M198.373,-252C198.373,-246 204.373,-240 210.373,-240"/>
<text text-anchor="middle" x="317.373" y="-325.4" font-family="Times Roman,serif" font-size="14.00">ApplicationController</text>
<polyline fill="none" stroke="black" points="198.373,-316 436.373,-316 "/>
<text text-anchor="start" x="206.373" y="-299.4" font-family="Times Roman,serif" font-size="14.00">_one_time_conditions_valid_22?</text>
<polyline fill="none" stroke="black" points="198.373,-290 436.373,-290 "/>
<polyline fill="none" stroke="black" points="198.373,-266 436.373,-266 "/>
<text text-anchor="start" x="206.373" y="-249.4" font-family="Times Roman,serif" font-size="14.00">_layout</text>
</g>
<!-- SessionsController -->
<g id="node3" class="node"><title>SessionsController</title>
<polyline fill="none" stroke="black" points="448.832,-9.53236 568.832,-9.53236 "/>
<path fill="none" stroke="black" d="M568.832,-9.53236C574.832,-9.53236 580.832,-15.5324 580.832,-21.5324"/>
<polyline fill="none" stroke="black" points="580.832,-21.5324 580.832,-153.532 "/>
<path fill="none" stroke="black" d="M580.832,-153.532C580.832,-159.532 574.832,-165.532 568.832,-165.532"/>
<polyline fill="none" stroke="black" points="568.832,-165.532 448.832,-165.532 "/>
<path fill="none" stroke="black" d="M448.832,-165.532C442.832,-165.532 436.832,-159.532 436.832,-153.532"/>
<polyline fill="none" stroke="black" points="436.832,-153.532 436.832,-21.5324 "/>
<path fill="none" stroke="black" d="M436.832,-21.5324C436.832,-15.5324 442.832,-9.53236 448.832,-9.53236"/>
<text text-anchor="middle" x="508.832" y="-148.932" font-family="Times Roman,serif" font-size="14.00">SessionsController</text>
<polyline fill="none" stroke="black" points="436.832,-139.532 580.832,-139.532 "/>
<text text-anchor="start" x="444.832" y="-122.932" font-family="Times Roman,serif" font-size="14.00">create</text>
<text text-anchor="start" x="444.832" y="-104.932" font-family="Times Roman,serif" font-size="14.00">destroy</text>
<text text-anchor="start" x="444.832" y="-86.9324" font-family="Times Roman,serif" font-size="14.00">new</text>
<text text-anchor="start" x="444.832" y="-68.9324" font-family="Times Roman,serif" font-size="14.00">sign_out</text>
<polyline fill="none" stroke="black" points="436.832,-59.5324 580.832,-59.5324 "/>
<polyline fill="none" stroke="black" points="436.832,-35.5324 580.832,-35.5324 "/>
<text text-anchor="start" x="444.832" y="-18.9324" font-family="Times Roman,serif" font-size="14.00">_layout</text>
</g>
<!-- ApplicationController&#45;&gt;SessionsController -->
<g id="edge2" class="edge"><title>ApplicationController&#45;&gt;SessionsController</title>
<path fill="none" stroke="black" d="M365.439,-239.919C386.929,-217.082 412.72,-189.673 436.468,-164.435"/>
</g>
<!-- StaticPagesController -->
<g id="node4" class="node"><title>StaticPagesController</title>
<polyline fill="none" stroke="black" points="49.467,-1.5 190.467,-1.5 "/>
<path fill="none" stroke="black" d="M190.467,-1.5C196.467,-1.5 202.467,-7.5 202.467,-13.5"/>
<polyline fill="none" stroke="black" points="202.467,-13.5 202.467,-163.5 "/>
<path fill="none" stroke="black" d="M202.467,-163.5C202.467,-169.5 196.467,-175.5 190.467,-175.5"/>
<polyline fill="none" stroke="black" points="190.467,-175.5 49.467,-175.5 "/>
<path fill="none" stroke="black" d="M49.467,-175.5C43.467,-175.5 37.467,-169.5 37.467,-163.5"/>
<polyline fill="none" stroke="black" points="37.467,-163.5 37.467,-13.5 "/>
<path fill="none" stroke="black" d="M37.467,-13.5C37.467,-7.5 43.467,-1.5 49.467,-1.5"/>
<text text-anchor="middle" x="119.967" y="-158.9" font-family="Times Roman,serif" font-size="14.00">StaticPagesController</text>
<polyline fill="none" stroke="black" points="37.467,-149.5 202.467,-149.5 "/>
<text text-anchor="start" x="45.467" y="-132.9" font-family="Times Roman,serif" font-size="14.00">about</text>
<text text-anchor="start" x="45.467" y="-114.9" font-family="Times Roman,serif" font-size="14.00">contact</text>
<text text-anchor="start" x="45.467" y="-96.9" font-family="Times Roman,serif" font-size="14.00">help</text>
<text text-anchor="start" x="45.467" y="-78.9" font-family="Times Roman,serif" font-size="14.00">home</text>
<text text-anchor="start" x="45.467" y="-60.9" font-family="Times Roman,serif" font-size="14.00">videos</text>
<polyline fill="none" stroke="black" points="37.467,-51.5 202.467,-51.5 "/>
<polyline fill="none" stroke="black" points="37.467,-27.5 202.467,-27.5 "/>
<text text-anchor="start" x="45.467" y="-10.9" font-family="Times Roman,serif" font-size="14.00">_layout</text>
</g>
<!-- ApplicationController&#45;&gt;StaticPagesController -->
<g id="edge4" class="edge"><title>ApplicationController&#45;&gt;StaticPagesController</title>
<path fill="none" stroke="black" d="M267.559,-239.901C247.914,-219.748 224.811,-196.049 202.791,-173.461"/>
</g>
<!-- UsersController -->
<g id="node5" class="node"><title>UsersController</title>
<polyline fill="none" stroke="black" points="13,-353.651 227,-353.651 "/>
<path fill="none" stroke="black" d="M227,-353.651C233,-353.651 239,-359.651 239,-365.651"/>
<polyline fill="none" stroke="black" points="239,-365.651 239,-623.651 "/>
<path fill="none" stroke="black" d="M239,-623.651C239,-629.651 233,-635.651 227,-635.651"/>
<polyline fill="none" stroke="black" points="227,-635.651 13,-635.651 "/>
<path fill="none" stroke="black" d="M13,-635.651C7,-635.651 1,-629.651 1,-623.651"/>
<polyline fill="none" stroke="black" points="1,-623.651 1,-365.651 "/>
<path fill="none" stroke="black" d="M1,-365.651C1,-359.651 7,-353.651 13,-353.651"/>
<text text-anchor="middle" x="120" y="-619.051" font-family="Times Roman,serif" font-size="14.00">UsersController</text>
<polyline fill="none" stroke="black" points="1,-609.651 239,-609.651 "/>
<text text-anchor="start" x="9" y="-593.051" font-family="Times Roman,serif" font-size="14.00">_one_time_conditions_valid_58?</text>
<text text-anchor="start" x="9" y="-575.051" font-family="Times Roman,serif" font-size="14.00">_one_time_conditions_valid_62?</text>
<text text-anchor="start" x="9" y="-557.051" font-family="Times Roman,serif" font-size="14.00">create</text>
<text text-anchor="start" x="9" y="-539.051" font-family="Times Roman,serif" font-size="14.00">edit</text>
<text text-anchor="start" x="9" y="-521.051" font-family="Times Roman,serif" font-size="14.00">index</text>
<text text-anchor="start" x="9" y="-503.051" font-family="Times Roman,serif" font-size="14.00">new</text>
<text text-anchor="start" x="9" y="-485.051" font-family="Times Roman,serif" font-size="14.00">show</text>
<text text-anchor="start" x="9" y="-467.051" font-family="Times Roman,serif" font-size="14.00">update</text>
<polyline fill="none" stroke="black" points="1,-457.651 239,-457.651 "/>
<polyline fill="none" stroke="black" points="1,-433.651 239,-433.651 "/>
<text text-anchor="start" x="9" y="-417.051" font-family="Times Roman,serif" font-size="14.00">_layout</text>
<text text-anchor="start" x="9" y="-399.051" font-family="Times Roman,serif" font-size="14.00">correct_user</text>
<text text-anchor="start" x="9" y="-381.051" font-family="Times Roman,serif" font-size="14.00">signed_in_user</text>
<text text-anchor="start" x="9" y="-363.051" font-family="Times Roman,serif" font-size="14.00">user_params</text>
</g>
<!-- ApplicationController&#45;&gt;UsersController -->
<g id="edge6" class="edge"><title>ApplicationController&#45;&gt;UsersController</title>
<path fill="none" stroke="black" d="M267.822,-342.127C258.915,-351.317 249.292,-361.247 239.376,-371.478"/>
</g>
<!-- VideosController -->
<g id="node6" class="node"><title>VideosController</title>
<polyline fill="none" stroke="black" points="454.876,-427.022 561.876,-427.022 "/>
<path fill="none" stroke="black" d="M561.876,-427.022C567.876,-427.022 573.876,-433.022 573.876,-439.022"/>
<polyline fill="none" stroke="black" points="573.876,-439.022 573.876,-553.022 "/>
<path fill="none" stroke="black" d="M573.876,-553.022C573.876,-559.022 567.876,-565.022 561.876,-565.022"/>
<polyline fill="none" stroke="black" points="561.876,-565.022 454.876,-565.022 "/>
<path fill="none" stroke="black" d="M454.876,-565.022C448.876,-565.022 442.876,-559.022 442.876,-553.022"/>
<polyline fill="none" stroke="black" points="442.876,-553.022 442.876,-439.022 "/>
<path fill="none" stroke="black" d="M442.876,-439.022C442.876,-433.022 448.876,-427.022 454.876,-427.022"/>
<text text-anchor="middle" x="508.376" y="-548.422" font-family="Times Roman,serif" font-size="14.00">VideosController</text>
<polyline fill="none" stroke="black" points="442.876,-539.022 573.876,-539.022 "/>
<text text-anchor="start" x="450.876" y="-522.422" font-family="Times Roman,serif" font-size="14.00">create</text>
<text text-anchor="start" x="450.876" y="-504.422" font-family="Times Roman,serif" font-size="14.00">index</text>
<text text-anchor="start" x="450.876" y="-486.422" font-family="Times Roman,serif" font-size="14.00">new</text>
<polyline fill="none" stroke="black" points="442.876,-477.022 573.876,-477.022 "/>
<polyline fill="none" stroke="black" points="442.876,-453.022 573.876,-453.022 "/>
<text text-anchor="start" x="450.876" y="-436.422" font-family="Times Roman,serif" font-size="14.00">_layout</text>
</g>
<!-- ApplicationController&#45;&gt;VideosController -->
<g id="edge8" class="edge"><title>ApplicationController&#45;&gt;VideosController</title>
<path fill="none" stroke="black" d="M365.078,-342.207C388.945,-367.826 418.179,-399.204 444.002,-426.924"/>
</g>
</g>
</svg>
