<?xml version="1.0" encoding="UTF-8" standalone="no"?>
<!DOCTYPE svg PUBLIC "-//W3C//DTD SVG 1.1//EN"
 "http://www.w3.org/Graphics/SVG/1.1/DTD/svg11.dtd">
<!-- Generated by graphviz version 2.26.3 (20100126.1600)
 -->
<!-- Title: models_diagram Pages: 1 -->
<svg width="484pt" height="534pt"
 viewBox="0.00 0.00 484.00 534.00" xmlns="http://www.w3.org/2000/svg" xmlns:xlink="http://www.w3.org/1999/xlink">
<g id="graph1" class="graph" transform="scale(1 1) rotate(0) translate(4 530)">
<title>models_diagram</title>
<polygon fill="white" stroke="white" points="-4,5 -4,-530 481,-530 481,5 -4,5"/>
<!-- _diagram_info -->
<g id="node1" class="node"><title>_diagram_info</title>
<text text-anchor="start" x="8" y="-509.8" font-family="Times Roman,serif" font-size="13.00">Models diagram</text>
<text text-anchor="start" x="8" y="-492.8" font-family="Times Roman,serif" font-size="13.00">Date: Sep 08 2013 &#45; 19:23</text>
<text text-anchor="start" x="8" y="-475.8" font-family="Times Roman,serif" font-size="13.00">Migration version: 20130908000925</text>
<text text-anchor="start" x="8" y="-458.8" font-family="Times Roman,serif" font-size="13.00">Generated by RailRoady 1.1.1</text>
<text text-anchor="start" x="8" y="-441.8" font-family="Times Roman,serif" font-size="13.00">http://railroady.prestonlee.com</text>
</g>
<!-- User -->
<g id="node2" class="node"><title>User</title>
<polyline fill="none" stroke="black" points="233,-235 391,-235 "/>
<path fill="none" stroke="black" d="M391,-235C397,-235 403,-241 403,-247"/>
<polyline fill="none" stroke="black" points="403,-247 403,-383 "/>
<path fill="none" stroke="black" d="M403,-383C403,-389 397,-395 391,-395"/>
<polyline fill="none" stroke="black" points="391,-395 233,-395 "/>
<path fill="none" stroke="black" d="M233,-395C227,-395 221,-389 221,-383"/>
<polyline fill="none" stroke="black" points="221,-383 221,-247 "/>
<path fill="none" stroke="black" d="M221,-247C221,-241 227,-235 233,-235"/>
<text text-anchor="middle" x="312" y="-378.4" font-family="Times Roman,serif" font-size="14.00">User</text>
<polyline fill="none" stroke="black" points="221,-369 403,-369 "/>
<text text-anchor="start" x="229" y="-352.4" font-family="Times Roman,serif" font-size="14.00">id :integer</text>
<text text-anchor="start" x="229" y="-334.4" font-family="Times Roman,serif" font-size="14.00">name :string</text>
<text text-anchor="start" x="229" y="-316.4" font-family="Times Roman,serif" font-size="14.00">email :string</text>
<text text-anchor="start" x="229" y="-298.4" font-family="Times Roman,serif" font-size="14.00">created_at :datetime</text>
<text text-anchor="start" x="229" y="-280.4" font-family="Times Roman,serif" font-size="14.00">updated_at :datetime</text>
<text text-anchor="start" x="229" y="-262.4" font-family="Times Roman,serif" font-size="14.00">password_digest :string</text>
<text text-anchor="start" x="229" y="-244.4" font-family="Times Roman,serif" font-size="14.00">remember_token :string</text>
</g>
<!-- Video -->
<g id="node3" class="node"><title>Video</title>
<polyline fill="none" stroke="black" points="293.5,-1 448.5,-1 "/>
<path fill="none" stroke="black" d="M448.5,-1C454.5,-1 460.5,-7 460.5,-13"/>
<polyline fill="none" stroke="black" points="460.5,-13 460.5,-185 "/>
<path fill="none" stroke="black" d="M460.5,-185C460.5,-191 454.5,-197 448.5,-197"/>
<polyline fill="none" stroke="black" points="448.5,-197 293.5,-197 "/>
<path fill="none" stroke="black" d="M293.5,-197C287.5,-197 281.5,-191 281.5,-185"/>
<polyline fill="none" stroke="black" points="281.5,-185 281.5,-13 "/>
<path fill="none" stroke="black" d="M281.5,-13C281.5,-7 287.5,-1 293.5,-1"/>
<text text-anchor="middle" x="371" y="-180.4" font-family="Times Roman,serif" font-size="14.00">Video</text>
<polyline fill="none" stroke="black" points="281.5,-171 460.5,-171 "/>
<text text-anchor="start" x="289.5" y="-154.4" font-family="Times Roman,serif" font-size="14.00">id :integer</text>
<text text-anchor="start" x="289.5" y="-136.4" font-family="Times Roman,serif" font-size="14.00">user_id :integer</text>
<text text-anchor="start" x="289.5" y="-118.4" font-family="Times Roman,serif" font-size="14.00">name :string</text>
<text text-anchor="start" x="289.5" y="-100.4" font-family="Times Roman,serif" font-size="14.00">path :string</text>
<text text-anchor="start" x="289.5" y="-82.4" font-family="Times Roman,serif" font-size="14.00">estado :integer</text>
<text text-anchor="start" x="289.5" y="-64.4" font-family="Times Roman,serif" font-size="14.00">video :string</text>
<text text-anchor="start" x="289.5" y="-46.4" font-family="Times Roman,serif" font-size="14.00">created_at :datetime</text>
<text text-anchor="start" x="289.5" y="-28.4" font-family="Times Roman,serif" font-size="14.00">updated_at :datetime</text>
<text text-anchor="start" x="289.5" y="-10.4" font-family="Times Roman,serif" font-size="14.00">video_converted :string</text>
</g>
<!-- User&#45;&gt;Video -->
<g id="edge2" class="edge"><title>User&#45;&gt;Video</title>
<path fill="none" stroke="#07559c" d="M336.019,-227.065C337.82,-220.474 339.648,-213.78 341.477,-207.085"/>
<ellipse fill="none" stroke="#07559c" cx="334.94" cy="-231.018" rx="4.00001" ry="4.00001"/>
<polygon fill="#07559c" stroke="#07559c" points="341.518,-206.935 348.494,-198.474 342.835,-202.112 344.153,-197.288 344.153,-197.288 344.153,-197.288 342.835,-202.112 339.812,-196.103 341.518,-206.935 341.518,-206.935"/>
</g>
<!-- ActiveRecord::Base -->
<g id="node5" class="node"><title>ActiveRecord::Base</title>
<ellipse fill="none" stroke="black" cx="372" cy="-479" rx="104.151" ry="18.3848"/>
<text text-anchor="middle" x="372" y="-475.4" font-family="Times Roman,serif" font-size="14.00">ActiveRecord::Base</text>
</g>
<!-- ActiveRecord::Base&#45;&gt;User -->
<g id="edge4" class="edge"><title>ActiveRecord::Base&#45;&gt;User</title>
<path fill="none" stroke="black" d="M365.234,-460.506C359.319,-444.338 350.299,-419.684 341.356,-395.239"/>
</g>
<!-- ActiveRecord::Base&#45;&gt;Video -->
<g id="edge6" class="edge"><title>ActiveRecord::Base&#45;&gt;Video</title>
<path fill="none" stroke="black" d="M383.953,-460.449C393.672,-444.193 406.622,-419.547 412,-396 428.032,-325.807 422.576,-305.219 412,-234 410.201,-221.886 407.541,-209.354 404.424,-197.029"/>
</g>
</g>
</svg>
