<?xml version="1.0" encoding="UTF-8" standalone="no"?>
<!DOCTYPE svg PUBLIC "-//W3C//DTD SVG 1.1//EN"
 "http://www.w3.org/Graphics/SVG/1.1/DTD/svg11.dtd">
<!-- Generated by graphviz version 2.26.3 (20100126.1600)
 -->
<!-- Title: models_diagram Pages: 1 -->
<svg width="484pt" height="250pt"
 viewBox="0.00 0.00 484.00 250.00" xmlns="http://www.w3.org/2000/svg" xmlns:xlink="http://www.w3.org/1999/xlink">
<g id="graph1" class="graph" transform="scale(1 1) rotate(0) translate(4 246)">
<title>models_diagram</title>
<polygon fill="white" stroke="white" points="-4,5 -4,-246 481,-246 481,5 -4,5"/>
<!-- _diagram_info -->
<g id="node1" class="node"><title>_diagram_info</title>
<text text-anchor="start" x="8" y="-225.8" font-family="Times Roman,serif" font-size="13.00">Models diagram</text>
<text text-anchor="start" x="8" y="-208.8" font-family="Times Roman,serif" font-size="13.00">Date: Sep 08 2013 &#45; 19:23</text>
<text text-anchor="start" x="8" y="-191.8" font-family="Times Roman,serif" font-size="13.00">Migration version: 20130908000925</text>
<text text-anchor="start" x="8" y="-174.8" font-family="Times Roman,serif" font-size="13.00">Generated by RailRoady 1.1.1</text>
<text text-anchor="start" x="8" y="-157.8" font-family="Times Roman,serif" font-size="13.00">http://railroady.prestonlee.com</text>
</g>
<!-- User -->
<g id="node2" class="node"><title>User</title>
<ellipse fill="none" stroke="black" cx="341" cy="-93" rx="33.9411" ry="18.3848"/>
<text text-anchor="middle" x="341" y="-89.4" font-family="Times Roman,serif" font-size="14.00">User</text>
</g>
<!-- Video -->
<g id="node3" class="node"><title>Video</title>
<ellipse fill="none" stroke="black" cx="372" cy="-19" rx="38.8909" ry="18.3848"/>
<text text-anchor="middle" x="372" y="-15.4" font-family="Times Roman,serif" font-size="14.00">Video</text>
</g>
<!-- User&#45;&gt;Video -->
<g id="edge2" class="edge"><title>User&#45;&gt;Video</title>
<path fill="none" stroke="#0768c3" d="M351.835,-67.1355C354.601,-60.5337 357.585,-53.4104 360.388,-46.7198"/>
<ellipse fill="none" stroke="#0768c3" cx="350.208" cy="-71.0185" rx="4.00002" ry="4.00002"/>
<polygon fill="#0768c3" stroke="#0768c3" points="360.454,-46.5616 368.468,-39.0769 362.386,-41.9499 364.318,-37.3382 364.318,-37.3382 364.318,-37.3382 362.386,-41.9499 360.167,-35.5994 360.454,-46.5616 360.454,-46.5616"/>
</g>
<!-- ActiveRecord::Base -->
<g id="node5" class="node"><title>ActiveRecord::Base</title>
<ellipse fill="none" stroke="black" cx="372" cy="-195" rx="104.151" ry="18.3848"/>
<text text-anchor="middle" x="372" y="-191.4" font-family="Times Roman,serif" font-size="14.00">ActiveRecord::Base</text>
</g>
<!-- ActiveRecord::Base&#45;&gt;User -->
<g id="edge4" class="edge"><title>ActiveRecord::Base&#45;&gt;User</title>
<path fill="none" stroke="black" d="M366.314,-176.292C360.721,-157.888 352.231,-129.953 346.65,-111.59"/>
</g>
<!-- ActiveRecord::Base&#45;&gt;Video -->
<g id="edge6" class="edge"><title>ActiveRecord::Base&#45;&gt;Video</title>
<path fill="none" stroke="black" d="M376.285,-176.127C381.137,-152.312 387.892,-110.1 384,-74 382.669,-61.6595 379.706,-48.0271 377.057,-37.4217"/>
</g>
</g>
</svg>
